REM DIRINDEX 1\8,1\2\11,1\3\12,1\3\14,1\5\15,1\5\16,1\6\17,1\6\18,1\4\19,1\4\20,1\4\21,1\4\22,1\7\23,1\7\24,1\7\25,1\2\9\26,1\2\9\27,1\2\10\28,1\2\10\29,1\2\10\30,1\2\10\31,1\2\10\32,1\3\13\33,1\3\13\34,1\3\13\35
REM DIRNAME folder01,folder02,folder03,folder04,folder05,folder06,folder07,folder08,folder09,folder10,folder11,folder12,folder13,folder14,folder15,folder16,folder17,folder18,folder19,folder20,folder21,folder22,folder23,folder24,folder25,folder26,folder27,folder28,folder29,folder30,folder31,folder32,folder33,folder34,folder35
TITLE ""
FILE "116 116_UNIT7_WARM-UP-40.mp3" MP3
  TRACK 01 AUDIO
    TITLE "14:cjc123_2319"
    INDEX 01 00:00:00
  TRACK 02 AUDIO
    TITLE "0:"
    INDEX 01 00:02:63
  TRACK 03 AUDIO
    TITLE "12:cjc123_2320"
    INDEX 01 00:03:41
  TRACK 04 AUDIO
    TITLE "0:"
    INDEX 01 00:04:52
  TRACK 05 AUDIO
    TITLE "12:cjc123_2321"
    INDEX 01 00:05:20
  TRACK 06 AUDIO
    TITLE "0:"
    INDEX 01 00:06:10
  TRACK 07 AUDIO
    TITLE "12:cjc123_2322"
    INDEX 01 00:06:61
  TRACK 08 AUDIO
    TITLE "0:"
    INDEX 01 00:07:70
  TRACK 09 AUDIO
    TITLE "12:cjc123_2323"
    INDEX 01 00:08:48
  TRACK 10 AUDIO
    TITLE "0:"
    INDEX 01 00:09:55
  TRACK 11 AUDIO
    TITLE "12:cjc123_2324"
    INDEX 01 00:10:33
  TRACK 12 AUDIO
    TITLE "0:"
    INDEX 01 00:11:48
  TRACK 13 AUDIO
    TITLE "12:cjc123_2325"
    INDEX 01 00:12:20
  TRACK 14 AUDIO
    TITLE "0:"
    INDEX 01 00:13:47
  TRACK 15 AUDIO
    TITLE "12:cjc123_2326"
    INDEX 01 00:14:15
  TRACK 16 AUDIO
    TITLE "0:"
    INDEX 01 00:15:42
  TRACK 17 AUDIO
    TITLE "12:cjc123_2327"
    INDEX 01 00:16:18
  TRACK 18 AUDIO
    TITLE "0:"
    INDEX 01 00:17:23
  TRACK 19 AUDIO
    TITLE "12:cjc123_2328"
    INDEX 01 00:17:69
  TRACK 20 AUDIO
    TITLE "0:"
    INDEX 01 00:19:40
  TRACK 21 AUDIO
    TITLE "12:cjc123_2329"
    INDEX 01 00:20:22
  TRACK 22 AUDIO
    TITLE "0:"
    INDEX 01 00:21:37
  TRACK 23 AUDIO
    TITLE "12:cjc123_2330"
    INDEX 01 00:22:03
  TRACK 24 AUDIO
    TITLE "0:"
    INDEX 01 00:23:20
  TRACK 25 AUDIO
    TITLE "12:cjc123_2331"
    INDEX 01 00:23:65
  TRACK 26 AUDIO
    TITLE "0:"
    INDEX 01 00:24:72
  TRACK 27 AUDIO
    TITLE "12:cjc123_2332"
    INDEX 01 00:25:41
  TRACK 28 AUDIO
    TITLE "0:"
    INDEX 01 00:27:06
  TRACK 29 AUDIO
    TITLE "12:cjc123_2333"
    INDEX 01 00:27:57
  TRACK 30 AUDIO
    TITLE "0:"
    INDEX 01 00:28:60
  TRACK 31 AUDIO
    TITLE "12:cjc123_2334"
    INDEX 01 00:29:33
  TRACK 32 AUDIO
    TITLE "0:"
    INDEX 01 00:30:38
  TRACK 33 AUDIO
    TITLE "12:cjc123_2335"
    INDEX 01 00:31:08
  TRACK 34 AUDIO
    TITLE "0:"
    INDEX 01 00:32:29
  TRACK 35 AUDIO
    TITLE "12:cjc123_2336"
    INDEX 01 00:33:03
  TRACK 36 AUDIO
    TITLE "0:"
    INDEX 01 00:33:66
  TRACK 37 AUDIO
    TITLE "12:cjc123_2337"
    INDEX 01 00:34:49
  TRACK 38 AUDIO
    TITLE "0:"
    INDEX 01 00:35:53
  TRACK 39 AUDIO
    TITLE "12:cjc123_2338"
    INDEX 01 00:36:35
  TRACK 40 AUDIO
    TITLE "0:"
    INDEX 01 00:37:67
  TRACK 41 AUDIO
    TITLE "12:cjc123_2339"
    INDEX 01 00:38:41
  TRACK 42 AUDIO
    TITLE "0:"
    INDEX 01 00:39:52
  TRACK 43 AUDIO
    TITLE "12:cjc123_2340"
    INDEX 01 00:40:28
  TRACK 44 AUDIO
    TITLE "0:"
    INDEX 01 00:41:57
  TRACK 45 AUDIO
    TITLE "12:cjc123_2341"
    INDEX 01 00:42:29
  TRACK 46 AUDIO
    TITLE "0:"
    INDEX 01 00:43:27
  TRACK 47 AUDIO
    TITLE "12:cjc123_2342"
    INDEX 01 00:44:07
  TRACK 48 AUDIO
    TITLE "0:"
    INDEX 01 00:45:00
  TRACK 49 AUDIO
    TITLE "12:cjc123_2343"
    INDEX 01 00:45:49
  TRACK 50 AUDIO
    TITLE "0:"
    INDEX 01 00:46:66
  TRACK 51 AUDIO
    TITLE "12:cjc123_2344"
    INDEX 01 00:47:44
  TRACK 52 AUDIO
    TITLE "0:"
    INDEX 01 00:48:53
  TRACK 53 AUDIO
    TITLE "12:cjc123_2345"
    INDEX 01 00:49:29
  TRACK 54 AUDIO
    TITLE "0:"
    INDEX 01 00:50:29
  TRACK 55 AUDIO
    TITLE "12:cjc123_2346"
    INDEX 01 00:51:07
  TRACK 56 AUDIO
    TITLE "0:"
    INDEX 01 00:52:49
  TRACK 57 AUDIO
    TITLE "12:cjc123_2347"
    INDEX 01 00:53:29
  TRACK 58 AUDIO
    TITLE "0:"
    INDEX 01 00:54:32
  TRACK 59 AUDIO
    TITLE "12:cjc123_2348"
    INDEX 01 00:55:06
  TRACK 60 AUDIO
    TITLE "0:"
    INDEX 01 00:56:14
  TRACK 61 AUDIO
    TITLE "12:cjc123_2349"
    INDEX 01 00:56:61
  TRACK 62 AUDIO
    TITLE "0:"
    INDEX 01 00:57:68
  TRACK 63 AUDIO
    TITLE "12:cjc123_2350"
    INDEX 01 00:58:42
  TRACK 64 AUDIO
    TITLE "0:"
    INDEX 01 00:59:51
  TRACK 65 AUDIO
    TITLE "12:cjc123_2351"
    INDEX 01 01:00:27
  TRACK 66 AUDIO
    TITLE "0:"
    INDEX 01 01:01:36
  TRACK 67 AUDIO
    TITLE "12:cjc123_2352"
    INDEX 01 01:02:06
  TRACK 68 AUDIO
    TITLE "0:"
    INDEX 01 01:03:29
  TRACK 69 AUDIO
    TITLE "12:cjc123_2353"
    INDEX 01 01:04:03
  TRACK 70 AUDIO
    TITLE "0:"
    INDEX 01 01:05:15
  TRACK 71 AUDIO
    TITLE "12:cjc123_2354"
    INDEX 01 01:05:62
  TRACK 72 AUDIO
    TITLE "0:"
    INDEX 01 01:07:15
  TRACK 73 AUDIO
    TITLE "12:cjc123_2355"
    INDEX 01 01:07:66
  TRACK 74 AUDIO
    TITLE "0:"
    INDEX 01 01:09:12
  TRACK 75 AUDIO
    TITLE "12:cjc123_2356"
    INDEX 01 01:09:63
  TRACK 76 AUDIO
    TITLE "0:"
    INDEX 01 01:11:05
  TRACK 77 AUDIO
    TITLE "12:cjc123_2357"
    INDEX 01 01:11:52
  TRACK 78 AUDIO
    TITLE "0:"
    INDEX 01 01:13:12
  TRACK 79 AUDIO
    TITLE "12:cjc123_2358"
    INDEX 01 01:13:65
  TRACK 80 AUDIO
    TITLE "0:"
    INDEX 01 01:14:57
  TRACK 81 AUDIO
    TITLE "12:cjc123_2359"
    INDEX 01 01:15:31
  TRACK 82 AUDIO
    TITLE "0:"
    INDEX 01 01:16:63
